<?xml version="1.0" encoding="utf-8"?>
<!-- Generator: Adobe Illustrator 24.1.1, SVG Export Plug-In . SVG Version: 6.00 Build 0)  -->
<svg version="1.1" id="Layer_1" xmlns="http://www.w3.org/2000/svg" xmlns:xlink="http://www.w3.org/1999/xlink" x="0px" y="0px"
	 viewBox="0 0 129 30" style="enable-background:new 0 0 129 30;" xml:space="preserve">
<style type="text/css">
	.st0{fill:#17A8E7;}
	.st1{fill:#D34AC9;}
	.st2{fill:#E8CC56;}
	.st3{fill:#41D65D;}
	.st4{fill:#353535;}
	.st5{fill:#FDCF0C;}
	.st6{fill:#1AA2E5;}
</style>
<g>
	<path class="st0" d="M9.3-24.8c-0.9-0.9-0.9-2.4,0-3.4l10.3-10.3c0.9-0.9,2.4-0.9,3.4,0c0.9,0.9,0.9,2.4,0,3.4L12.6-24.8
		C11.7-23.9,10.2-23.9,9.3-24.8z"/>
	<path class="st1" d="M13.3-20.8c-0.9-0.9-0.9-2.4,0-3.4l5.2-5.3c0.9-0.9,2.4-0.9,3.4,0s0.9,2.4,0,3.4l-5.3,5.3
		C15.7-19.9,14.2-19.9,13.3-20.8z"/>
	<path class="st2" d="M22.5-30c-0.9-0.9-0.9-2.4,0-3.4l1.1-1.1c0.9-0.9,2.4-0.9,3.4,0c0.9,0.9,0.9,2.4,0,3.4L25.9-30
		C24.9-29.1,23.4-29.1,22.5-30z"/>
	<path class="st3" d="M10.4-33.8c-0.9-0.9-0.9-2.4,0-3.4l5.3-5.3c0.9-0.9,2.4-0.9,3.4,0c0.9,0.9,0.9,2.4,0,3.4l-5.2,5.3
		C12.8-32.9,11.3-32.9,10.4-33.8z"/>
	<path class="st2" d="M5.3-28.8c-0.9-0.9-0.9-2.4,0-3.4l1.1-1.1c0.9-0.9,2.4-0.9,3.4,0c0.9,0.9,0.9,2.4,0,3.4l-1.1,1.1
		C7.8-27.8,6.3-27.8,5.3-28.8z"/>
</g>
<g>
	<path class="st4" d="M25.9,4.7h4.4v20.6h-4.4V4.7z"/>
	<path class="st4" d="M41.8,16.2c0-2.1-1.1-2.8-2.8-2.8c-1.5,0-2.8,0.9-3.4,1.8v10h-3.9V10.3h3.9v1.9c1-1.1,2.8-2.3,5.2-2.3
		c3.3,0,4.8,1.9,4.8,4.8v10.5h-3.9C41.8,25.2,41.8,16.2,41.8,16.2z"/>
	<path class="st4" d="M47.5,4.7h9.6c4.5,0,6.9,3,6.9,6.6c0,3.6-2.5,6.6-6.9,6.6h-5.3v7.4h-4.4V4.7z M56.5,8.4h-4.7v5.7h4.7
		c1.7,0,3-1.1,3-2.8C59.6,9.6,58.3,8.4,56.5,8.4z"/>
	<path class="st4" d="M75.1,16.2c0-2.1-1.1-2.7-2.8-2.7c-1.5,0-2.7,0.9-3.4,1.8v10H65V4.7h3.9v7.6c1-1.1,2.8-2.3,5.3-2.3
		c3.3,0,4.8,1.8,4.8,4.7v10.6h-3.9V16.2z"/>
	<path class="st4" d="M89.8,23.7c-1,1.2-2.8,1.9-4.7,1.9c-2.4,0-5.2-1.6-5.2-4.9c0-3.5,2.8-4.8,5.2-4.8c2,0,3.7,0.6,4.7,1.8v-2.1
		c0-1.5-1.3-2.5-3.3-2.5c-1.6,0-3.1,0.6-4.3,1.8l-1.5-2.6c1.8-1.6,4.2-2.3,6.5-2.3c3.4,0,6.5,1.4,6.5,5.6v9.6h-3.9
		C89.8,25.2,89.8,23.7,89.8,23.7z M89.8,19.8c-0.7-0.9-1.9-1.3-3.2-1.3c-1.5,0-2.8,0.8-2.8,2.3c0,1.4,1.3,2.2,2.8,2.2
		c1.3,0,2.5-0.4,3.2-1.3V19.8z"/>
	<path class="st4" d="M96.6,20.5c1.1,1,3.3,2,5.2,2c1.7,0,2.5-0.6,2.5-1.5c0-1-1.3-1.4-3-1.8c-2.6-0.5-5.9-1.1-5.9-4.7
		c0-2.5,2.2-4.7,6.1-4.7c2.5,0,4.5,0.9,6,2l-1.6,2.7c-0.9-1-2.6-1.7-4.4-1.7c-1.4,0-2.3,0.5-2.3,1.4c0,0.9,1.2,1.3,2.8,1.6
		c2.6,0.5,6,1.2,6,4.9c0,2.7-2.3,4.8-6.4,4.8c-2.6,0-5.1-0.9-6.7-2.3L96.6,20.5z"/>
	<path class="st4" d="M116.2,10c4.4,0,7.5,3.3,7.5,8.2V19h-11.1c0.3,1.9,1.8,3.5,4.3,3.5c1.4,0,3-0.6,4-1.5l1.7,2.5
		c-1.5,1.4-3.8,2.1-6.1,2.1c-4.5,0-8-3.1-8-7.8C108.5,13.4,111.7,10,116.2,10z M112.5,16.4h7.3c-0.1-1.4-1.1-3.3-3.7-3.3
		C113.8,13.1,112.7,14.9,112.5,16.4z"/>
</g>
<circle class="st5" cx="126.5" cy="23.3" r="2.3"/>
<g>
	<path class="st6" d="M19.4,11.5L9.1,21.8c-0.9,0.9-2.4,0.9-3.4,0c-0.9-0.9-0.9-2.4,0-3.4L16,8.1c0.9-0.9,2.4-0.9,3.4,0
		C20.3,9.1,20.3,10.6,19.4,11.5z"/>
	<path class="st1" d="M23.4,15.5l-5.3,5.2c-0.9,0.9-2.4,0.9-3.4,0s-0.9-2.4,0-3.4l5.2-5.3c0.9-0.9,2.4-0.9,3.4,0
		S24.3,14.6,23.4,15.5z"/>
	<path class="st5" d="M14.2,24.7l-1.1,1.1c-0.9,0.9-2.4,0.9-3.4,0c-0.9-0.9-0.9-2.4,0-3.4l1.1-1.1c0.9-0.9,2.4-0.9,3.4,0
		S15.1,23.8,14.2,24.7z"/>
	<path class="st3" d="M10.4,12.6l-5.3,5.2c-0.9,0.9-2.4,0.9-3.4,0c-0.9-0.9-0.9-2.4,0-3.4L7,9.2c0.9-0.9,2.4-0.9,3.4,0
		C11.3,10.2,11.3,11.7,10.4,12.6z"/>
	<path class="st5" d="M15.4,7.5l-1.1,1.1c-0.9,0.9-2.4,0.9-3.4,0c-0.9-0.9-0.9-2.4,0-3.4l1.1-1.1c0.9-0.9,2.4-0.9,3.4,0
		C16.4,5.1,16.4,6.6,15.4,7.5z"/>
</g>
</svg>
